<?xml version="1.0" encoding="UTF-8"?><!DOCTYPE svg PUBLIC "-//W3C//DTD SVG 1.1//EN" "http://www.w3.org/Graphics/SVG/1.1/DTD/svg11.dtd"><svg xmlns="http://www.w3.org/2000/svg"><symbol id="arrow-next" viewBox="0 0 24 24"><path d="M9.06 21.06l-2.12-2.12L13.878 12l-6.94-6.94L9.06 2.94 18.122 12z"/></symbol><symbol id="arrow-previous" viewBox="0 0 24 24"><path d="M14.94 21.06L5.879 12l9.06-9.06 2.122 2.12L10.12 12l6.94 6.94z"/></symbol><symbol id="check" viewBox="0 0 24 24"><path d="M10.145 15.393l-4.231-3.25-1.828 2.379 6.658 5.114L20.14 6.89l-2.415-1.78z"/></symbol><symbol id="cookie" viewBox="114 876 19 20"><g fill-rule="evenodd"><path d="M123.127 893.265c-3.93 0-7.127-3.197-7.127-7.128 0-.551.066-1.101.197-1.645a4.785 4.785 0 0 0 3.506-2.145 6.516 6.516 0 0 0 5.061-3.14c3.174.748 5.49 3.614 5.49 6.93 0 3.93-3.197 7.128-7.127 7.128m1.226-16.165l-.743-.1-.305.685c-.723 1.63-2.34 2.683-4.089 2.684l-.726-.004-.274.559a2.797 2.797 0 0 1-2.518 1.59h-.008a2.155 2.155 0 0 0-.182-.02l-.758-.044-.248.718a9.12 9.12 0 0 0-.502 2.969c0 5.033 4.094 9.128 9.127 9.128s9.127-4.095 9.127-9.128c0-4.545-3.397-8.43-7.9-9.037"/><path d="M125.72 882.852a1.518 1.518 0 1 0 0 3.037 1.518 1.518 0 0 0 0-3.037M123.702 888.227a1.747 1.747 0 1 0 0 3.494 1.747 1.747 0 0 0 0-3.494M120.104 885.28a.982.982 0 1 0 .001 1.966.982.982 0 0 0 0-1.965"/></g></symbol><symbol id="cta" viewBox="519 660 15 16"><path d="M526.061 675.061l-2.121-2.121 3.439-3.44H519v-3h8.379l-3.439-3.439 2.121-2.121 7.061 7.06z"/></symbol><symbol id="down-arrow" viewBox="0 0 19 12"><title>Fill 2</title><path d="M.879 2.121L3 0l6.94 6.939L16.879 0 19 2.121l-9.06 9.061z"/></symbol><symbol id="drag" viewBox="739 542 18 25"><path d="M755.438 557.015a1.748 1.748 0 0 1 1.062 1.61c0 .07-.012.152-.023.233l-.875 6.149c-.129.851-.805 1.493-1.68 1.493H746c-.478 0-.922-.198-1.237-.513L739 560.223l.922-.933c.233-.233.56-.385.921-.385.105 0 .187.023.28.035l4.002.84v-12.53c0-.968.782-1.75 1.75-1.75s1.75.782 1.75 1.75v7h.887c.221 0 .431.047.63.128l5.296 2.637zm-11.48-5.402a5.233 5.233 0 0 1-2.333-4.363 5.243 5.243 0 0 1 5.25-5.25 5.243 5.243 0 0 1 5.25 5.25c0 1.82-.922 3.418-2.333 4.363v-4.363a2.918 2.918 0 0 0-5.834 0v4.363z" fill-rule="evenodd"/></symbol><symbol id="draggable" viewBox="0 0 65 65"><title>drag icon</title><g fill="none" fill-rule="evenodd"><ellipse fill="#333" cx="32.75" cy="32.75" rx="32" ry="32"/><text font-family="CircularPro-Bold, Circular Pro" font-size="16" font-weight="bold" letter-spacing=".19" fill="#FFF"><tspan x="15.079" y="38">Drag</tspan></text></g></symbol><symbol id="escape" viewBox="0 0 24 24"><path d="M21.06 5.06l-2.12-2.12L12 9.878l-6.94-6.94-2.12 2.122 6.939 6.938-6.94 6.94 2.122 2.122 6.938-6.94 6.94 6.94 2.122-2.122L14.12 12z"/></symbol><symbol id="gear" viewBox="503 32 28 26"><g fill-rule="evenodd"><path d="M507 51.604c-1.103 0-2-.897-2-2s.897-2 2-2 2 .897 2 2-.897 2-2 2m1-5.858V33h-2v12.746c-1.72.447-3 2-3 3.858s1.28 3.411 3 3.858v3.685h2v-3.685c1.72-.447 3-2 3-3.858s-1.28-3.41-3-3.858M527 51.604c-1.103 0-2-.897-2-2s.897-2 2-2 2 .897 2 2-.897 2-2 2m4-2c0-1.858-1.28-3.41-3-3.858V33h-2v12.746c-1.72.447-3 2-3 3.858s1.28 3.411 3 3.858v3.685h2v-3.685c1.72-.447 3-2 3-3.858M517 42.544c-1.103 0-2-.897-2-2s.897-2 2-2 2 .897 2 2-.897 2-2 2m1-5.858V33h-2v3.686c-1.72.447-3 2-3 3.858s1.28 3.41 3 3.858v12.746h2V44.402c1.72-.447 3-2 3-3.858s-1.28-3.411-3-3.858"/></g></symbol><symbol id="grid" viewBox="0 0 24 24"><path d="M4 7h3V4H4v3zm13 0h3V4h-3v3zm-6.5 0h3V4h-3v3zM4 13.5h3v-3H4v3zm13 0h3v-3h-3v3zm-6.5 0h3v-3h-3v3zM4 20h3v-3H4v3zm13 0h3v-3h-3v3zm-6.5 0h3v-3h-3v3z"/></symbol><symbol id="headphones" viewBox="740 547 16 15"><path d="M749 547h-2c-3.866 0-7 3.242-7 7.241V559.931c0 1.143.895 2.069 2 2.069s2-.926 2-2.069v-3.103c0-1.143-.895-2.07-2-2.07-.367 0-.706.108-1 .288v-.805c0-3.428 2.686-6.207 6-6.207h2c3.314 0 6 2.78 6 6.207v.805a1.905 1.905 0 0 0-1-.287c-1.105 0-2 .926-2 2.069v3.103c0 1.143.895 2.069 2 2.069s2-.926 2-2.069v-5.69c0-4-3.134-7.241-7-7.241"/></symbol><symbol id="list" viewBox="0 0 24 24"><path d="M10 7h10V4H10v3zM4 7h3V4H4v3zm0 13h3v-3H4v3zm6 0h10v-3H10v3zm-6-6.5h3v-3H4v3zm6 0h10v-3H10v3z"/></symbol><symbol id="location" viewBox="0 0 24 24"><path d="M12 13a3 3 0 1 1 0-6 3 3 0 0 1 0 6m0-11a7.5 7.5 0 0 0-7.5 7.5C4.5 16 12 22 12 22s7.5-6 7.5-12.5A7.5 7.5 0 0 0 12 2"/></symbol><symbol id="logo" viewBox="0 0 36 40"><path d="M1.24 0L.078 8.837 0 39.69l22.17.155 13.644-1.085-.543-16.667-1.162-9.612.542-11.163L1.241 0zm13.08 27.946l3.591.09-1.167-7.095 8.455 1.805-7.377-7.553 7.817 1.702-7.368-7.54 5.575 1.115-6.294-6.862-6.726 6.32 4.092-1.25-6.663 10.044 5.615-3.26-4.769 9.313 5.986-3.585-.768 6.756zm-10.868 4.85l.809 1.436 4.31-1.975 4.85 2.604 4.4-2.425 4.311 1.976 4.67-2.604 4.58 1.706.719-1.437-5.03-2.335-5.298 2.335-3.951-1.886-3.862 1.976-5.568-1.976-4.94 2.604z" fill-rule="evenodd"/></symbol><symbol id="long-arrow" viewBox="-287 384 37 25"><path d="M-262.4 408.1l-2.1-2.1 9.4-9.5-9.4-9.5 2.1-2.1 11.5 11.6z"/><path d="M-286.7 395h34.4v3h-34.4z"/></symbol><symbol id="menu" viewBox="0 0 24 24"><path d="M4 7h16V4H4v3zm0 13h16v-3H4v3zm0-6.5h16v-3H4v3z"/></symbol><symbol id="mute" viewBox="1 0 21 18"><g fill-rule="evenodd"><path d="M6.187 4.555H3.01A2.002 2.002 0 0 0 1 6.559v4.923c0 1.116.9 2.005 2.009 2.005h3.178l3.679 3.167c.828.713 1.508.405 1.508-.699V2.086c0-1.111-.675-1.416-1.508-.698L6.187 4.555z"/><g fill-rule="nonzero"><path d="M19.286 5.175l-6 6.125a1 1 0 1 0 1.428 1.4l6-6.125a1 1 0 1 0-1.428-1.4z"/><path d="M13.286 6.575l6 6.125a1 1 0 1 0 1.428-1.4l-6-6.125a1 1 0 1 0-1.428 1.4z"/></g></g></symbol><symbol id="pause" viewBox="16 16 16 16"><g fill-rule="evenodd" transform="translate(16 16)"><rect width="6" height="16" rx="2"/><rect x="10" width="6" height="16" rx="2"/></g></symbol><symbol id="play" viewBox="18 16 16 17"><path d="M32.925 22.653c1.439.744 1.428 1.955 0 2.694l-12.32 6.367c-1.438.744-2.605-.015-2.605-1.666V17.952c0-1.664 1.177-2.404 2.606-1.666l12.319 6.367z" fill-rule="evenodd"/></symbol><symbol id="playhead" viewBox="735 542 26 26"><path d="M748 566c6.075 0 11-4.925 11-11s-4.925-11-11-11-11 4.925-11 11 4.925 11 11 11zm0 2c-7.18 0-13-5.82-13-13s5.82-13 13-13 13 5.82 13 13-5.82 13-13 13zm4.5-13l-6-3.5v7l6-3.5z"/></symbol><symbol id="playing" viewBox="1 0 22 18"><g fill-rule="evenodd"><path d="M6.187 4.555H3.01A2.002 2.002 0 0 0 1 6.559v4.923c0 1.116.9 2.005 2.009 2.005h3.178l3.679 3.167c.828.713 1.508.405 1.508-.699V2.086c0-1.111-.675-1.416-1.508-.698L6.187 4.555z"/><g fill-rule="nonzero"><path d="M14.03 12.742c2.127 0 3.88-1.629 3.88-3.676s-1.753-3.675-3.88-3.675a1 1 0 1 0 0 2c1.054 0 1.88.767 1.88 1.675s-.826 1.676-1.88 1.676a1 1 0 1 0 0 2z"/><path d="M14.003 16.566c4.403 0 8-3.34 8-7.5 0-4.159-3.597-7.5-8-7.5a1 1 0 1 0 0 2c3.33 0 6 2.48 6 5.5s-2.67 5.5-6 5.5a1 1 0 1 0 0 2z"/></g></g></symbol><symbol id="search" viewBox="0 0 24 24"><path d="M9.5 14.321a4.826 4.826 0 0 1-4.821-4.82A4.827 4.827 0 0 1 9.5 4.677 4.827 4.827 0 0 1 14.321 9.5 4.826 4.826 0 0 1 9.5 14.321zm11.561 4.618l-5.306-5.305A7.5 7.5 0 0 0 9.5 2a7.5 7.5 0 1 0 4.134 13.755l5.305 5.305 2.122-2.12z"/></symbol><symbol id="show-less" viewBox="0 0 24 24"><path d="M12 7l-4 8h8z"/></symbol><symbol id="show-more" viewBox="0 0 24 24"><path d="M12 17L8 9h8z"/></symbol></svg>